# xmcd
# 
# Track frame offsets:
#     150
#     19711
#     40645
#     60296
#     77210
#     95285
#     119988
#     138780
#     158833
#     185790
#     206720
#     233350
# 
# Disc length: 3305
# 
# Revision: 5
# Processed by: cddbd v1.5.2PL0 Copyright (c) Steve Scherf et al.
# Submitted via: fre:ac v1.0.31
# 
DISCID=960ce70c
DTITLE=Eric Burdon And The Animals - 'Til Your River Runs Dry
DYEAR=2013
DGENRE=Rock/Pop
TTITLE0=Water
TTITLE1=Memorial Day
TTITLE2=Devil And Jesus
TTITLE3=Wait
TTITLE4=Old Habits Die Hard
TTITLE5=Bo Diddley Special
TTITLE6=In The Ground
TTITLE7=27 Forever
TTITLE8=River Is Rising
TTITLE9=Medicine Man
TTITLE10=Invitation To The White House
TTITLE11=Before You Accuse Me
EXTD=
EXTT0=
EXTT1=
EXTT2=
EXTT3=
EXTT4=
EXTT5=
EXTT6=
EXTT7=
EXTT8=
EXTT9=
EXTT10=
EXTT11=
PLAYORDER=
